<svg xmlns="http://www.w3.org/2000/svg" xmlns:xlink="http://www.w3.org/1999/xlink" xml:space="preserve" width="3.66196in" height="4.34554in" style="shape-rendering:geometricPrecision; text-rendering:geometricPrecision; image-rendering:optimizeQuality; fill-rule:evenodd; clip-rule:evenodd" viewBox="0 0 4.6185 5.48063">
 <defs>
  <style type="text/css">
   <![CDATA[
    .str0 {stroke:#1F1A17;stroke-width:0.00875895}
    .str1 {stroke:white;stroke-width:0.0350358}
    .fil4 {fill:none}
    .fil1 {fill:#010101}
    .fil3 {fill:#019B4D}
    .fil2 {fill:#F9F9F9}
    .fil0 {fill:white}
   ]]>
  </style>
 </defs>
 <g id="Layer_x0020_1">
  <metadata id="CorelCorpID_0Corel-Layer"></metadata>
  <g id="_128269008">
   <rect id="_132795176" class="fil0 str0" x="1.11707" y="3.04801" width="1.12468" height="1.00855"></rect>
   <path id="_132795104" class="fil1" d="M0.50493 2.73699l0.243865 -0.00214008 0.420871 -0.00136052 1.13138 0.00682741 0 2.35744c0,0.0209093 0.0016783,0.00199112 -0.00546193,0.0164106l0.0273245 0.0109388c0.00514911,-0.0127611 0.0650665,-0.0422604 0.0812089,-0.0500015 0.0249908,-0.0119914 0.0508009,-0.0356366 0.0809259,-0.0502895 0.0501057,-0.0243602 0.112208,-0.0716903 0.15925,-0.103186 0.092396,-0.0618539 0.219465,-0.15279 0.297476,-0.227385 0.0386506,-0.0369524 0.0981111,-0.0867503 0.13985,-0.122595 0.0484076,-0.0415802 0.0872915,-0.0858466 0.131603,-0.130853 0.0872568,-0.0885925 0.170124,-0.177542 0.244352,-0.280554 0.0666852,-0.0925499 0.162234,-0.209649 0.213422,-0.311519 0.0268578,-0.0534474 0.0723854,-0.112262 0.0956284,-0.166842 0.012622,-0.0296434 0.0307556,-0.0547087 0.0452992,-0.085936 0.0156658,-0.0336306 0.025825,-0.059391 0.0415802,-0.08967 0.0523104,-0.100504 0.114179,-0.256954 0.149602,-0.375373 0.0247475,-0.0827532 0.118007,-0.330586 0.118007,-0.412465l-1.25163 0.00683238 -0.213169 -0.00136052 0 0.0109388 -0.344335 0 0 -1.083c-0.0240126,-0.0152388 -0.0690189,-0.00535765 -0.100663,-0.0141216 -0.031555,-0.00874405 -0.0600713,-0.0188139 -0.0859062,-0.0288936 -0.0508208,-0.0198218 -0.100698,-0.0566948 -0.139969,-0.08966 -0.0587108,-0.0493013 -0.154443,-0.201714 -0.154443,-0.3049l0 -0.120331c0,-0.0998987 0.0928081,-0.237271 0.146196,-0.291275 0.0578468,-0.0584972 0.189335,-0.135361 0.301995,-0.135361l0.0710349 -0.00597336 1.48962e-005 -0.00496539 -0.0382583 0 0 -0.229734c0,-0.0105564 0.00172299,-0.0097272 0.00546689,-0.0164056 -0.0135853,-0.00844116 -0.191992,0.0688253 -0.222156,0.0839945 -0.0681152,0.0342364 -0.160327,0.0602004 -0.231625,0.0909113 -0.150625,0.0648877 -0.309657,0.117635 -0.473072,0.171996 -0.0815962,0.0271458 -0.158649,0.0487998 -0.24101,0.0760648 -0.0839449,0.0277913 -0.177289,0.0383825 -0.259491,0.0630257 -0.102391,0.030696 -0.432873,0.0911596 -0.551218,0.0938012l0 0.103921c0,0.295237 0.0270614,0.57101 0.0380448,0.853481 0.00476677,0.122516 0.0302591,0.276667 0.0443211,0.404168 0.00702603,0.0637059 0.0241963,0.127735 0.0358799,0.188342 0.00807372,0.0418781 0.0473748,0.177751 0.0478068,0.197056l0 4.96539e-006z"></path>
   <path id="_132795032" class="fil1" d="M0.180373 0.869683c0.0980813,0 0.221566,-0.0349861 0.317159,-0.0381392 0.0455574,-0.00150451 0.251815,-0.0394699 0.297164,-0.0526728 0.0928826,-0.0270316 0.194132,-0.0345095 0.286612,-0.0632442 0.0745007,-0.0231536 0.211223,-0.0430748 0.275942,-0.0739148 0.0193005,-0.00920087 0.10765,-0.0361431 0.131727,-0.0431989 0.0496638,-0.0145685 0.0824652,-0.0281339 0.132069,-0.0428712 0.0333227,-0.00990099 0.0834136,-0.0364708 0.12413,-0.0508009 0.0459696,-0.0161921 0.0784283,-0.0339682 0.12335,-0.0515954 0.0409347,-0.016068 0.0788355,-0.0379306 0.120287,-0.054659 0.040463,-0.0163312 0.0809358,-0.0449765 0.116175,-0.0587604 0.066,-0.025825 0.154717,-0.093533 0.223393,-0.126508 0.0708561,0.0340228 0.156251,0.0929918 0.224907,0.119522 0.060255,0.0232827 0.169429,0.0808465 0.230925,0.113489 0.0393011,0.0208646 0.0893274,0.0338689 0.123564,0.0513769 0.0259392,0.0132626 0.0883442,0.0433627 0.116905,0.0525735 0.0907822,0.0292809 0.161544,0.0608955 0.256949,0.0874504 0.0253781,0.00705582 0.0328411,0.0115694 0.0666107,0.0208546 0.0086795,0.00238339 0.0634775,0.0175278 0.068006,0.0194643 0.0407013,0.0174633 0.084645,0.0241368 0.134433,0.0350259 0.0437997,0.00957824 0.0943623,0.0298718 0.13912,0.0358154 0.0391869,0.00519876 0.106493,0.0175874 0.142864,0.0265847 0.0906829,0.0224237 0.197374,0.0353337 0.29333,0.0510442 0.0777083,0.0127213 0.23029,0.0359891 0.306672,0.0376923l0.00676286 0.114775 -0.00130093 0.443136c0,0.0518188 -0.0003873,0.136677 -0.00874902,0.182682 -0.0102039,0.0561734 -0.00138534,0.121101 -0.008034,0.17793 -0.0117183,0.100286 -0.0344896,0.232013 -0.0376823,0.334225 -0.000774601,0.0247028 -0.0183223,0.126717 -0.0251298,0.160824 -0.0103677,0.0520025 -0.0185706,0.104924 -0.0309741,0.15497 -0.0116041,0.0468038 -0.0157006,0.106652 -0.029271,0.156678 -0.0133023,0.0490233 -0.0267287,0.0985381 -0.0362225,0.149721 -0.00553144,0.029847 -0.0161673,0.0370269 -0.0211724,0.0772615 -0.000456816,0.00365949 -0.0163014,0.0637755 -0.019514,0.0734629 -0.0123042,0.0370716 -0.0298916,0.110818 -0.0438096,0.142129 -0.0382335,0.0860601 -0.0583086,0.18722 -0.0983644,0.273494 -0.0166688,0.0358998 -0.0359941,0.103558 -0.0530254,0.132909 -0.0233175,0.0401799 -0.0411134,0.0812338 -0.0602202,0.125709 -0.039023,0.090807 -0.0866808,0.160218 -0.126424,0.245424 -0.0303783,0.0651111 -0.102436,0.177076 -0.143877,0.233423 -0.0099854,0.0135853 -0.00861992,0.0214257 -0.0162021,0.0330198 -0.00589888,0.00903204 -0.0135059,0.0120957 -0.0208298,0.0229103 -0.0130639,0.0192856 -0.0234267,0.0393259 -0.0349166,0.0580454 -0.0221009,0.0360189 -0.055945,0.0703596 -0.0821424,0.103757 -0.0447332,0.0570474 -0.114681,0.158525 -0.166966,0.204852 -0.027116,0.0240226 -0.0659652,0.0690686 -0.0897295,0.0961796 -0.0293157,0.0334419 -0.0615758,0.0607565 -0.0935032,0.092396 -0.0329801,0.0326574 -0.0609303,0.0578567 -0.0935281,0.0923711 -0.0292263,0.0309443 -0.0703049,0.0531346 -0.101294,0.0846003 -0.0339037,0.03443 -0.0681996,0.0516351 -0.103777,0.0821126 -0.0182627,0.015641 -0.0886372,0.0706525 -0.105231,0.0806627 -0.0716357,0.0432138 -0.15201,0.108722 -0.226362,0.145416 -0.0456667,0.0225429 -0.202345,0.128033 -0.243726,0.128033 -0.00324736,0 -0.232355,-0.122124 -0.253215,-0.134949 -0.0821275,-0.0504732 -0.156137,-0.0961994 -0.233026,-0.149677 -0.154702,-0.10761 -0.289154,-0.211923 -0.427977,-0.337473 -0.0523849,-0.0473698 -0.14556,-0.143058 -0.191272,-0.196932 -0.0594754,-0.0700964 -0.115008,-0.140972 -0.173481,-0.209276 -0.0469875,-0.0548824 -0.120386,-0.160318 -0.158833,-0.223924 -0.0243801,-0.040319 -0.0498922,-0.0757271 -0.0724947,-0.118896 -0.0119666,-0.0228607 -0.0262222,-0.0409347 -0.0373646,-0.0610594 -0.0114254,-0.0206362 -0.0161822,-0.0413418 -0.0310188,-0.0619432 -0.0340626,-0.0473003 -0.102247,-0.198213 -0.12841,-0.259849 -0.019087,-0.0449765 -0.0377568,-0.0917455 -0.0584377,-0.132953 -0.0151494,-0.0301747 -0.0321956,-0.108087 -0.0490928,-0.142318 -0.0369971,-0.0750171 -0.161554,-0.497631 -0.169533,-0.59609 -0.00278062,-0.0343208 -0.0261477,-0.122248 -0.0350705,-0.161817 -0.0122695,-0.0543809 -0.0167036,-0.110564 -0.0255122,-0.165909 -0.0168923,-0.10619 -0.0276374,-0.224848 -0.0463966,-0.336445 -0.0148664,-0.0883839 -0.0295888,-0.260728 -0.029549,-0.353312 4.96539e-005,-0.122685 -0.0163957,-0.237137 -0.0163957,-0.366466l0 -0.388348zm2.12614 -0.864211l-0.00546689 0.00546689 -0.0109288 0.00547186 -0.0109288 0.00546689 -0.0109338 0.00547186 -0.0218676 0.0109388 -0.00546193 0.00546689 -0.00546689 0.00547186 -0.0109288 0.00546689 -0.0109338 0.00547186 -0.00546689 0.00546689 -0.0109288 0.00547186 -0.0109288 0.00546689 -0.0109338 0.00547186 -0.00546193 0.00546689 -0.0109338 0.00547682 -0.0109338 0.00547186 -0.0109288 0.00546689 -0.00546689 0.00547186 -0.0164007 0.00546689 -0.00546193 0.00547186 -0.0109338 0.00546689 -0.00546193 0.00547186 -0.0218676 0.00546689 -0.00546193 0.00547186 -0.0109338 0.00546689 -0.0109288 0.00547186 -0.0109338 0.00547186 -0.0109288 0.00546689 -0.0109288 0.00547186 -0.0163957 0.00546689 -0.00547186 0.00547186 -0.0109338 0.00546689 -0.00546193 0.00547186 -0.0163957 0.00546689 -0.0109338 0.00547186 -0.0109288 0.00546689 -0.0163957 0.00547186 -0.0109338 0.00546689 -0.00546193 0.00547186 -0.0109338 0.00546689 -0.0163957 0.00547186 -0.0109338 0.00546689 -0.0109288 0.00547186 -0.0163957 0.00546689 -0.0109338 0.00547186 -0.00547186 0.00546689 -0.0163957 0.00547682 -0.0218576 0.00547186 -0.00546689 0.00546689 -0.0163957 0.00547186 -0.00546689 0.00546689 -0.0164007 0.00547186 -0.0163957 0.00546689 -0.00546193 0.00547186 -0.0218676 0.00546689 -0.0163907 0.00547186 -0.00547186 0.00547186 -0.0109239 0.00546689 -0.0218676 0.00547186 -0.0109338 0.00546689 -0.0109288 0.00547186 -0.0273295 0.00546689 -0.00546193 0.00547186 -0.0163957 0.00546689 -0.00547186 0.00547186 -0.0273295 0.00546689 -0.0109288 0.00547186 -0.0163957 0.00546689 -0.0109338 0.00547186 -0.0273295 0.00546689 -0.00546193 0.00547186 -0.0163957 0.00546689 -0.0218626 0.00547186 -0.0163957 0.00546689 -0.0109338 0.00547186 -0.0109338 0.00546689 -0.0273295 0.00547186 -0.0109288 0.00547186 -0.0163957 0.00547186 -0.0273295 0.00547186 -0.0163957 0.00546689 -0.0163957 0.00547186 -0.0109338 0.00546689 -0.0273295 0.00547186 -0.0109288 0.00547186 -0.0163957 0.00546689 -0.0164056 0.00547186 -0.0327865 0.00546689 -0.0163957 0.00547186 -0.0109338 0.00546689 -0.0327914 0.00547186 -0.0164007 0.00546689 -0.0163957 0.00547186 -0.0163957 0.00546689 -0.0328014 0.00547186 -0.0218576 0.00546689 -0.0163957 0.00547186 -0.0273345 0.00546689 -0.0218576 0.00547186 -0.0163957 0.00546689 -0.0218626 0.00547186 -0.0382633 0.00546689 -0.0163957 0.00547186 -0.0163957 0.00546689 -0.0218626 0.00547186 -0.0382633 0.00547186 -0.0273295 0.00546689 -0.0218576 0.00547186 -0.0437302 0.00546689 -0.0163957 0.00547186 -0.0218626 0.00546689 -0.0218576 0.00547682 -0.0491971 0.00546689 -0.0273245 0.00547186 -0.0273295 0.00547186 -0.0491921 0.00546689 -0.0218576 0.00547186 -0.0273295 0.00546689 -0.0327964 0.00547186 -0.0601209 0.00546689 -0.0327964 0.00547186 -0.0327914 0.00546689 -0.0327964 0.00547186 -0.0601209 0.00546689 -0.0382633 0.00547186 -0.0437203 0.00546689 -0.0710597 0.00547186 0 0.574317 0.00547186 0.103926 0.00546193 0.0656325 0.00546689 0.142214 0.00546193 0.0656375 0.00546689 0.0546987 0.00546689 0.0492269 0.00546193 0.0929819 0.00547186 0.0328212 0.00546193 0.043755 0.00546193 0.0765762 0.00547186 0.0382931 0.00546193 0.0328163 0.00547186 0.0328163 0.00546193 0.0601656 0.00546689 0.0218775 0.00546689 0.0382931 0.00546193 0.0546938 0.00546689 0.0273494 0.00546689 0.0273444 0.00546689 0.0273494 0.00546193 0.0382931 0.00546689 0.0273444 0.00546689 0.0273494 0.00546193 0.0218775 0.00547186 0.043755 0.00546193 0.0218775 0.00546193 0.0218874 0.00547186 0.0328163 0.00546193 0.0218775 0.00547186 0.0218775 0.00546193 0.0218775 0.00546193 0.0382881 0.00547186 0.0164106 0.00546193 0.0164056 0.00546689 0.0382931 0.00546689 0.0164106 0.00546689 0.0164056 0.00546193 0.0218775 0.00546689 0.0273494 0.00546689 0.0218775 0.00546193 0.0109388 0.00547186 0.0328262 0.00546193 0.0164056 0.00546193 0.0164106 0.00547186 0.0164056 0.00546193 0.0273494 0.00547186 0.0164056 0.00546193 0.0109388 0.00546193 0.0164106 0.00546689 0.0328163 0.00546689 0.0109388 0.00546689 0.0109487 0.00546193 0.0273444 0.00546689 0.0109388 0.00546689 0.0164106 0.00546193 0.0109388 0.00547186 0.0273494 0.00546193 0.0164056 0.00547186 0.0109388 0.00546193 0.0218775 0.00546193 0.0109388 0.00547186 0.0164156 0.00546193 0.0109388 0.00546689 0.0273494 0.00546689 0.00546689 0.00546193 0.0164106 0.00546689 0.00546689 0.00546689 0.0273494 0.00546689 0.0109388 0.00546193 0.0109388 0.00546689 0.0218775 0.00546689 0.0109388 0.00546193 0.0109388 0.00547186 0.00547186 0.00546193 0.0273543 0.00546193 0.0109388 0.00547186 0.0109388 0.00546193 0.0218775 0.00547186 0.00547186 0.00546193 0.0109388 0.00546193 0.0109388 0.00547186 0.0164056 0.00546193 0.0164106 0.00546689 0.00546689 0.00546689 0.0164106 0.00546689 0.0109388 0.00546193 0.0109388 0.00546193 0.0109388 0.00547186 0.0164156 0.00546193 0.0109388 0.00547186 0.0109388 0.00546193 0.0109388 0.00546193 0.0164106 0.00547186 0.00546689 0.00546193 0.0109388 0.00546689 0.0164106 0.00546689 0.0109388 0.00546193 0.0109388 0.00546689 0.00546689 0.00546689 0.0164106 0.00546689 0.00546689 0.00546193 0.0109388 0.00546689 0.0164106 0.00546689 0.0109437 0.00546193 0.00547186 0.00547186 0.0109388 0.00546193 0.0164106 0.00547186 0.00546689 0.00546193 0.0109388 0.00546193 0.0109388 0.00547186 0.0109388 0.00546193 0.0109388 0.00546689 0.00547186 0.00546689 0.0164056 0.00546193 0.00547186 0.00546689 0.0109388 0.00546689 0.00546689 0.00546689 0.0164106 0.00546193 0.00547186 0.00546689 0.0109388 0.00546689 0.0109388 0.00546193 0.0109437 0.00547186 0.00547186 0.00546193 0.0109388 0.00546193 0.0109388 0.00547186 0.00546689 0.00546193 0.00547186 0.00547186 0.0164056 0.00546193 0.00547186 0.00546689 0.0109388 0.00546689 0.00546689 0.00546193 0.0109388 0.00546689 0.0109388 0.00546193 0.00547186 0.00547186 0.00546689 0.00546193 0.0164106 0.00546193 0.00547186 0.00547186 0.00546689 0.00546193 0.0164106 0.0109338 0.0109388 0.00546193 0.00547682 0.00547186 0.0109388 0.00546193 0.0109388 0.00546689 0.00546689 0.00546689 0.0109388 0.00546193 0.00547186 0.00546689 0.00546689 0.00546689 0.0109388 0.00546689 0.0109388 0.00546193 0.00547186 0.00547186 0.00546689 0.00546193 0.0109388 0.00546193 0.0109437 0.0109338 0.0109388 0.00547186 0.0109388 0.0109239 0.0109388 0.00547186 0.00546689 0.00546193 0.0109388 0.00546689 0.0109388 0.0109288 0.0109487 0.00546689 0.00546689 0.00546689 0.00547186 0.00546689 0.0109388 0.00546193 0.00546689 0.00546689 0.00547186 0.00546689 0.0109388 0.00546193 0.00546689 0.00547186 0.0109388 0.00546193 0.00547186 0.0109338 0.0164056 0.00546193 0.00547186 0.0164007 0.0164106 0.00546193 0.00546689 0.0109338 0.0164106 0.00546193 0.00546689 0.0109338 0.0164106 0.00546193 0.00546689 0.00547186 0.00547186 0.00546193 0.00546689 0.00547186 0.0109388 0.00546193 0.00547682 0.00546193 0.00547186 0.0109338 0.0164056 0.0163957 0.0164106 0.00546689 0.00546689 0.0163957 0.0218825 0.0382633 0.0382832 0.00546193 0.00547186 0.00547186 0.00546689 0.00546193 0.00547186 0.00546689 0.00546689 0.00546689 0.00547186 0.00546193 0.00546689 0.00546689 0.00547186 0.00546689 0.00546689 0.00546689 0.00547186 0.00546193 0.00546689 0.00546193 0.00547186 0.00547186 0.00546689 0.00546193 0.0109487 0.0109338 0.0109388 0.00547186 0.00546689 0.0109239 0.0109388 0.00546689 0.00547186 0.00546689 0.00546689 0.00546689 0.00547186 0.00546193 0.00547186 0.0163957 0.0109388 0.00547186 0.00546689 0.00546193 0.00547186 0.00546193 0.00546689 0.00547186 0.00547186 0.00546193 0.00546689 0.00547186 0.00547186 0.00546193 0.00546689 0.00546193 0.00547186 0.00547186 0.00546689 0.00546193 0.00547186 0.00546689 0.00546689 0.00546689 0.00547186 0.00546193 0.00546689 0.0109338 0.0109388 0.0109288 0.00547186 0.00547186 0.0109388 0.0109239 0.00547186 0.00547186 0.00547186 0.00546193 0.00547186 0.00547186 0.00546689 0.0109239 0.0109388 0.00547186 0.00547186 0.0109288 0.00547186 0.00546689 0.00546689 0.00546193 0.00547186 0.00546689 0.00546689 0.00546193 0.00547186 0.00547186 0.00546689 0.0109239 0.00547186 0.00547186 0.00546689 0.00546193 0.00547186 0.00547186 0.00546689 0.00546193 0.00547186 0.0109338 0.00546689 0.00546193 0.00547186 0.00546689 0.00546689 0.00546689 0.00547186 0.0163957 0.0164056 0.0164007 0.0109388 0.0109239 0.00547186 0.00547186 0.00547186 0.00546193 0.00546689 0.0109338 0.00547186 0.00546193 0.00546689 0.00547186 0.00547186 0.0163957 0.0164106 0.0273245 0.0164106 0.0163957 0.0109388 0.00547186 0.00547186 0.00546193 0.00546689 0.0109338 0.00547186 0.00546193 0.00546689 0.00547186 0.00547186 0.00546193 0.00546689 0.0163957 0.0109388 0.0109288 0.00547186 0.00547186 0.00546689 0.0109239 0.00547186 0.00547186 0.00546689 0.00546193 0.00547186 0.0218676 0.0164056 0.0109288 0.00547186 0.0109338 0.00547186 0.0109288 0.00546689 0.00546689 0.00547186 0.0109338 0.00546689 0.00546193 0.00547186 0.00546193 0.00546689 0.00547186 0.00547186 0.0163957 0.00546689 0.00546193 0.00547682 0.0109338 0.0109388 0.0164007 0.00547186 0.00546193 0.00546689 0.00546689 0.00547186 0.0164007 0.00546689 0.00546193 0.00547186 0.00546193 0.00546689 0.00547186 0.00547186 0.0218576 0.0109388 0.0109338 0.00546689 0.0218626 0.0164106 0.0109338 0.00546689 0.0109338 0.00547186 0.0109239 0.00546689 0.00547186 0.00547186 0.0109288 0.00547186 0.0109288 0.00546689 0.0109338 0.00547186 0.00546689 0.00546689 0.0382534 0.0218775 0.0273295 0.0164106 0.0327964 0.0164156 0.0109338 0.00546689 0.0109338 0.00547186 0.0109239 0.00546689 0.0109338 0.00547186 0.0382583 0.0218775 0.0437252 0.0218775 0.0327964 0.0164056 0.0382633 0 0.0327914 -0.0164056 0.0109338 -0.00547186 0.0163907 -0.0109388 0.0109338 -0.00546689 0.0109338 -0.00547186 0.0218576 -0.0109388 0.0109338 -0.00546689 0.0109338 -0.00547186 0.0163957 -0.0109388 0.0109288 -0.00546689 0.0273295 -0.0164156 0.0109338 -0.00547186 0.0163957 -0.0109388 0.0109338 -0.00546689 0.0163957 -0.0109388 0.0109288 -0.00547186 0.0109338 -0.00546689 0.0163957 -0.0109388 0.0163957 -0.0109437 0.0109338 -0.00546689 0.0163957 -0.0109388 0.0327964 -0.0218775 0.0273295 -0.0164106 0.0218576 -0.0164056 0.0164007 -0.0109388 0.0109338 -0.00547186 0.0109239 -0.00546689 0.0218676 -0.0164156 0.00546193 -0.00547186 0.0109338 -0.00546689 0.0163957 -0.0109388 0.00546689 -0.00547186 0.0163957 -0.0109388 0.00546193 -0.00547186 0.00547186 -0.00546689 0.00546193 -0.00547186 0.0109338 -0.00546689 0.00547186 -0.00547186 0.00546193 -0.00546689 0.0163957 -0.00547186 0.00546689 -0.00546689 0.0109288 -0.0109388 0.00546689 -0.00547186 0.00546193 -0.00546689 0.0109338 -0.00547186 0.00546193 -0.00546689 0.0109338 -0.00547186 0.00547186 -0.00546689 0.00546193 -0.00547186 0.0109338 -0.00546689 0.00546193 -0.00547186 0.0109338 -0.0109388 0.0218626 -0.0163312 0.00546193 -0.00555131 0.00547186 -0.00547186 0.0109239 -0.00546689 0.0601259 -0.0492269 0.00546193 -0.00547186 0.054659 -0.0492219 0.00546689 -0.00547186 0.00546689 -0.00546689 0.00546689 -0.00547186 0.00546193 -0.00546689 0.00546689 -0.00547186 0.00546689 -0.00547186 0.0218576 -0.0164056 0.00547186 -0.00547186 0.0109338 -0.0109437 0.00546193 -0.00547186 0.00546193 -0.00546689 0.00547186 -0.00547186 0.00546193 -0.00546689 0.00546689 -0.00547186 0.0109338 -0.0109388 0.00546193 -0.00546689 0.00546689 -0.00547186 0.0382583 -0.0382832 0.0109338 -0.0109388 0.00546193 -0.00547186 0.00547186 -0.00546689 0.00546193 -0.00547186 0.00546689 -0.00547186 0.00546193 -0.00546689 0.0109338 -0.0109388 0.00546193 -0.00547186 0.00547186 -0.00546689 0.0109239 -0.0109388 0.00547186 -0.00547186 0.0109338 -0.0109437 0.00546193 -0.00547186 0.00546689 -0.00546689 0.00546689 -0.0109388 0.00546193 -0.00547186 0.00546689 -0.00546689 0.00546689 -0.00547186 0.00546689 -0.00546689 0.00546193 -0.00547186 0.00546689 -0.00546689 0.0109288 -0.0164106 0.00547186 -0.00546689 0.00546193 -0.00547186 0.00546193 -0.00546689 0.00547186 -0.00547186 0.00546193 -0.00546689 0.0218676 -0.0218825 0.0163957 -0.0218775 0.0109288 -0.0164056 0.00546689 -0.00547186 0.0109288 -0.0164156 0.00547186 -0.00546689 0.00546193 -0.00547186 0.00546193 -0.00546689 0.00547186 -0.00547186 0.00546193 -0.0109388 0.00547186 -0.00546689 0.0109239 -0.0164106 0.0218626 -0.0218775 0.00546689 -0.00547186 0.0109288 -0.0164056 0.00547186 -0.0109388 0.00546193 -0.00547186 0.00547186 -0.00546689 0.00546193 -0.0109388 0.00546193 -0.00547186 0.00547186 -0.00546689 0.00546193 -0.0109388 0.00546689 -0.00547186 0.00546689 -0.00546689 0.00546193 -0.0109487 0.00546689 -0.00546689 0.00546689 -0.00547186 0.00546689 -0.0109388 0.00546193 -0.0109388 0.0163957 -0.0218775 0.00547186 -0.00546689 0.00546193 -0.00547186 0.0109338 -0.0164106 0.00546193 -0.0109388 0.00547186 -0.00546689 0.00546193 -0.00547186 0.0109338 -0.0164056 0.00546193 -0.00547186 0.00546689 -0.0109388 0.00546689 -0.0109388 0.00546689 -0.00546689 0.00546193 -0.00547186 0.00546193 -0.0164156 0.00547186 -0.00546689 0.00546193 -0.00547186 0.00547186 -0.0109388 0.00546193 -0.0109388 0.00546193 -0.00546689 0.00547186 -0.00547186 0.00546193 -0.0164106 0.00546689 -0.00546689 0.00546689 -0.00547186 0.00546193 -0.0109388 0.00546689 -0.0109388 0.00546689 -0.0109388 0.00546689 -0.00546689 0.00546193 -0.0109388 0.00546689 -0.00547186 0.00546689 -0.0109388 0.00546193 -0.00546689 0.00547186 -0.0164106 0.00546193 -0.00547186 0.00547186 -0.0109437 0.00546193 -0.0109388 0.00546193 -0.00546689 0.00547186 -0.0109388 0.00546193 -0.00547186 0.00546689 -0.0164106 0.00546689 -0.00546689 0.00546193 -0.0109388 0.00546689 -0.0109388 0.00546689 -0.00547186 0.00546689 -0.0109388 0.00546193 -0.0109388 0.00546689 -0.0164056 0.00546689 -0.00547186 0.00546193 -0.00546689 0.00547186 -0.0164106 0.00546193 -0.0109388 0.00546193 -0.00547186 0.00547186 -0.0109437 0.0163957 -0.0273494 0.00546689 -0.0109388 0.00546689 -0.0164056 0.00546193 -0.0109388 0.00546689 -0.0109388 0.00546193 -0.0109388 0.00547186 -0.0109388 0.00546193 -0.0109388 0.00546193 -0.00547186 0.00547186 -0.0218775 0.00546193 -0.0109388 0.00547186 -0.00547186 0.00546193 -0.0164056 0.00546193 -0.0109487 0.00547186 -0.00546689 0.00546193 -0.0109388 0.00546689 -0.0218775 0.00546689 -0.00547186 0.00546193 -0.0109388 0.00546689 -0.0109388 0.00546689 -0.0164056 0.00546689 -0.0109388 0.00546193 -0.0109388 0.00547186 -0.0218825 0.00546193 -0.0109388 0.00546193 -0.00546689 0.00547186 -0.0109388 0.00546193 -0.0218874 0.00547186 -0.00546689 0.00546193 -0.0164106 0.00546193 -0.0218775 0.00547186 -0.00546689 0.00546193 -0.0164106 0.00546689 -0.00546689 0.00546689 -0.0218825 0.00546193 -0.0109388 0.00546689 -0.0164056 0.00546689 -0.0218775 0.0109288 -0.0218775 0.0109338 -0.0328262 0.00546193 -0.0109388 0.00547186 -0.0164056 0.0109239 -0.0328212 0.0218676 -0.0656325 0.0218626 -0.0601706 0.0109338 -0.0382881 0.00546193 -0.0164056 0.00546193 -0.0109388 0.00547186 -0.0164106 0.00546193 -0.0273444 0.00547186 -0.0109388 0.00546193 -0.0164106 0.00546193 -0.0218825 0.00547186 -0.0273494 0.00546193 -0.0109388 0.00546689 -0.0164106 0.00546689 -0.0328163 0.00546193 -0.0164056 0.00546689 -0.0164106 0.00546689 -0.0164106 0.00546689 -0.0328212 0.00546193 -0.0164106 0.00547186 -0.0109388 0.00546193 -0.0382832 0.00546193 -0.0218775 0.00547186 -0.0164106 0.00546193 -0.0218775 0.00547186 -0.0328163 0.00546193 -0.0218874 0.0109338 -0.0601607 0.00546193 -0.0218775 0.00546689 -0.0218825 0.00546689 -0.0218775 0.00546193 -0.0382931 0.00546689 -0.0273444 0.00546689 -0.0273494 0.00546689 -0.0218775 0.00546193 -0.0492269 0.00546193 -0.0273444 0.00547186 -0.0273543 0.00546193 -0.0546938 0.00547186 -0.0218825 0.00546193 -0.0328163 0.00547186 -0.0382832 0.00546193 -0.0656424 0.00546193 -0.0328163 0.00546689 -0.0328163 0.00546689 -0.0820481 0.00546689 -0.04376 0.00546193 -0.0492219 0.00546689 -0.0546987 0.00546689 -0.120331 0.00546193 -0.0546987 0.00547186 -0.087515 0 -0.683714 -0.00547186 -0.043755 -0.0109288 -0.00547186 -0.0382534 -0.00546689 -0.0437302 -0.00547186 -0.0655928 -0.00546689 -0.0327914 -0.00547186 -0.0382583 -0.00546689 -0.0327914 -0.00547186 -0.0601259 -0.00546689 -0.0382583 -0.00547186 -0.0273295 -0.00546689 -0.0218576 -0.00547186 -0.054664 -0.00546689 -0.0273295 -0.00547186 -0.0273295 -0.00547186 -0.054654 -0.00546689 -0.0273295 -0.00547682 -0.0163957 -0.00546689 -0.0218626 -0.00547186 -0.0437252 -0.00546689 -0.0218626 -0.00547186 -0.0218626 -0.00546689 -0.0437203 -0.00547186 -0.0218676 -0.00547186 -0.0163957 -0.00546689 -0.0164007 -0.00547186 -0.0382534 -0.00546689 -0.0218676 -0.00547186 -0.0163957 -0.00546689 -0.0163957 -0.00547186 -0.0327964 -0.00546689 -0.0218626 -0.00547186 -0.0163957 -0.00546689 -0.0327914 -0.00547186 -0.0163957 -0.00546689 -0.0164007 -0.00547186 -0.0163957 -0.00546689 -0.0273295 -0.00547186 -0.0109338 -0.00546689 -0.0163957 -0.00547186 -0.0327914 -0.00546689 -0.0109338 -0.00547186 -0.0163957 -0.00546689 -0.0164007 -0.00547186 -0.0218576 -0.00547186 -0.0164007 -0.00546689 -0.0109288 -0.00547186 -0.0164007 -0.00546689 -0.0273295 -0.00547186 -0.0109239 -0.00547186 -0.0164007 -0.00547186 -0.0218626 -0.00547186 -0.0109288 -0.00546689 -0.0109338 -0.00547186 -0.0163957 -0.00546689 -0.0218676 -0.00547186 -0.0163957 -0.00546689 -0.00546193 -0.00547186 -0.0273295 -0.00546689 -0.00546689 -0.00547186 -0.0163957 -0.00546689 -0.0109338 -0.00547186 -0.0218626 -0.00546689 -0.0109288 -0.00547186 -0.0109288 -0.00546689 -0.0109338 -0.00547186 -0.0218676 -0.00546689 -0.0109239 -0.00547186 -0.0109338 -0.00546689 -0.0218626 -0.00547186 -0.0109338 -0.00546689 -0.00546193 -0.00547186 -0.0109338 -0.00547186 -0.0218676 -0.00546689 -0.0109239 -0.00547186 -0.0109338 -0.00546689 -0.0163957 -0.00547186 -0.0109338 -0.00546689 -0.0109288 -0.00547186 -0.0109338 -0.00546689 -0.0218676 -0.00547186 -0.00546193 -0.00547682 -0.0109288 -0.00546689 -0.0109338 -0.00547186 -0.0163957 -0.00546689 -0.00546193 -0.00547186 -0.0163957 -0.00546689 -0.0164056 -0.00547186 -0.00546193 -0.00546689 -0.0109338 -0.00547186 -0.00546193 -0.00546689 -0.0164007 -0.00547186 -0.0163957 -0.00546689 -0.00546193 -0.00547186 -0.0163957 -0.00546689 -0.0109338 -0.00547186 -0.0109338 -0.00546689 -0.00546193 -0.00547186 -0.0164007 -0.00546689 -0.0109288 -0.00547186 -0.00546689 -0.00546689 -0.0109338 -0.00547186 -0.0163957 -0.00547186 -0.0109338 -0.00546689 -0.00546193 -0.00547186 -0.0163957 -0.00546689 -0.0109338 -0.00547186 -0.00546689 -0.00546689 -0.0109288 -0.00547186 -0.0109288 -0.00546689 -0.0109338 -0.00547186 -0.0109338 -0.00546689 -0.0163957 -0.00547186 -0.00546193 -0.00547682 -0.0109338 -0.00546689 -0.00546689 -0.00547186 -0.0163957 -0.00546689 -0.00546689 -0.00547186 -0.0109288 -0.00546689 -0.00547186 -0.00547186 -0.0218576 -0.00546689 -0.00547186 -0.00547186 -0.00546193 -0.00546689 -0.0163957 -0.00547186 -0.0109288 -0.00546689 -0.00546689 -0.00547186 -0.00546689 -0.00546689 -0.0163957 -0.00547186 -0.0109338 -0.0109388 -0.0382583 0 -0.00546689 0.00547186z"></path>
   <path id="_132719040" class="fil2" d="M4.12112 2.71843c0,0.0818793 -0.0932599,0.329712 -0.118007,0.412465 -0.0354231,0.11842 -0.0972918,0.274869 -0.149602,0.375373 -0.0157552,0.0302789 -0.0259144,0.0560394 -0.0415802,0.08967 -0.0145436,0.0312273 -0.0326772,0.0562926 -0.0452992,0.085936 -0.023243,0.0545796 -0.0687706,0.113395 -0.0956284,0.166842 -0.0511882,0.10187 -0.146737,0.218969 -0.213422,0.311519 -0.0742276,0.103012 -0.157095,0.191962 -0.244352,0.280554 -0.0443111,0.0450063 -0.0831951,0.0892727 -0.131603,0.130853 -0.0417391,0.0358451 -0.1012,0.085643 -0.13985,0.122595 -0.0780112,0.074595 -0.205081,0.165531 -0.297476,0.227385 -0.0470421,0.0314955 -0.109144,0.0788256 -0.15925,0.103186 -0.030125,0.0146529 -0.0559351,0.038298 -0.0809259,0.0502895 -0.0161425,0.00774104 -0.0760598,0.0372404 -0.0812089,0.0500015l-0.0273245 -0.0109388c-0.140982,-0.0746546 -0.301027,-0.181013 -0.426323,-0.273489 -0.0638003,-0.0470868 -0.136474,-0.101056 -0.195358,-0.154563 -0.0403885,-0.0366942 -0.146325,-0.138917 -0.181773,-0.162676l-0.174901 -0.180497c-0.0290972,-0.0434869 -0.100152,-0.124348 -0.137978,-0.168232 -0.0373646,-0.0433478 -0.10046,-0.128678 -0.129751,-0.17645 -0.0378661,-0.0617545 -0.0838952,-0.122034 -0.118534,-0.187687 -0.0345293,-0.0654587 -0.0708114,-0.127303 -0.106627,-0.194127 -0.0689941,-0.128698 -0.133614,-0.284686 -0.184097,-0.428374 -0.0266195,-0.0757669 -0.0503987,-0.152989 -0.0774005,-0.22885 -0.0226769,-0.0637357 -0.0400359,-0.18227 -0.0654637,-0.235315 -0.000431989,-0.0193104 -0.0321857,-0.1421 -0.0402594,-0.183978 -0.0116836,-0.0606075 -0.0288539,-0.124636 -0.0358799,-0.188342 -0.014062,-0.127501 -0.0395543,-0.281652 -0.0443211,-0.404168 -0.0109834,-0.282471 -0.0380448,-0.558244 -0.0380448,-0.853481l0 -0.103921c0.118345,-0.00264159 0.448826,-0.0631051 0.551218,-0.0938012 0.082202,-0.0246432 0.175546,-0.0352344 0.259491,-0.0630257 0.0823609,-0.027265 0.159414,-0.048919 0.24101,-0.0760648 0.163416,-0.0543611 0.322447,-0.107108 0.473072,-0.171996 0.071298,-0.0307109 0.16351,-0.056675 0.231625,-0.0909113 0.0301647,-0.0151693 0.208571,-0.0924357 0.222156,-0.0839945 0.0313664,0.00731402 0.0970585,0.0425683 0.126871,0.0535368 0.0442218,0.0162666 0.0838505,0.0330844 0.124423,0.0505129 0.081055,0.0348223 0.172443,0.0618539 0.251547,0.0983346 0.0775643,0.0357607 0.185452,0.0592867 0.258826,0.0965073 0.0647338,0.0328361 0.210974,0.0563274 0.260415,0.0894614l0.344886 0.0909361c0.0464065,0.00204574 0.230925,0.0467243 0.292337,0.0589988 0.0849479,0.0169916 0.215553,0.0342314 0.302869,0.0415057 0,0.111677 0.00368432,0.363327 -0.0120858,0.463757 -0.0207255,0.131906 -0.00638053,0.305322 -0.0273345,0.443042 -0.0100251,0.065846 -0.00566054,0.149746 -0.0163957,0.21879 -0.00821772,0.0528417 -0.0258548,0.15561 -0.0263166,0.208864 -0.000481643,0.0558408 -0.0240722,0.145029 -0.0326077,0.202563 -0.00794959,0.0535964 -0.0399366,0.145377 -0.0437649,0.191401zm-3.94074 -1.84875l0 0.388348c0,0.129329 0.0164454,0.243781 0.0163957,0.366466 -3.97231e-005,0.0925846 0.0146827,0.264928 0.029549,0.353312 0.0187592,0.111597 0.0295043,0.230255 0.0463966,0.336445 0.0088086,0.0553442 0.0132427,0.111528 0.0255122,0.165909 0.0089228,0.0395692 0.0322899,0.127496 0.0350705,0.161817 0.00797938,0.0984587 0.132536,0.521073 0.169533,0.59609 0.0168972,0.0342314 0.0339434,0.112143 0.0490928,0.142318 0.0206808,0.0412078 0.0393507,0.0879768 0.0584377,0.132953 0.0261626,0.0616354 0.0943474,0.212548 0.12841,0.259849 0.0148366,0.0206014 0.0195934,0.0413071 0.0310188,0.0619432 0.0111423,0.0201247 0.025398,0.0381987 0.0373646,0.0610594 0.0226025,0.0431691 0.0481146,0.0785773 0.0724947,0.118896 0.038447,0.0636066 0.111845,0.169042 0.158833,0.223924 0.0584724,0.0683039 0.114005,0.13918 0.173481,0.209276 0.0457114,0.0538745 0.138887,0.149562 0.191272,0.196932 0.138822,0.12555 0.273275,0.229863 0.427977,0.337473 0.0768891,0.0534772 0.150898,0.0992035 0.233026,0.149677 0.0208596,0.0128256 0.249968,0.134949 0.253215,0.134949 0.0413816,0 0.198059,-0.10549 0.243726,-0.128033 0.0743517,-0.0366942 0.154726,-0.102203 0.226362,-0.145416 0.0165943,-0.0100102 0.0869688,-0.0650218 0.105231,-0.0806627 0.035577,-0.0304776 0.069873,-0.0476826 0.103777,-0.0821126 0.030989,-0.0314657 0.0720677,-0.053656 0.101294,-0.0846003 0.0325978,-0.0345144 0.060548,-0.0597138 0.0935281,-0.0923711 0.0319275,-0.0316395 0.0641876,-0.0589541 0.0935032,-0.092396 0.0237644,-0.027111 0.0626136,-0.072157 0.0897295,-0.0961796 0.0522855,-0.0463271 0.122233,-0.147805 0.166966,-0.204852 0.0261974,-0.0333972 0.0600415,-0.0677378 0.0821424,-0.103757 0.0114899,-0.0187195 0.0218527,-0.0387598 0.0349166,-0.0580454 0.00732395,-0.0108146 0.0149309,-0.0138783 0.0208298,-0.0229103 0.00758215,-0.0115942 0.00621667,-0.0194345 0.0162021,-0.0330198 0.0414411,-0.0563472 0.113499,-0.168312 0.143877,-0.233423 0.039743,-0.0852061 0.0874008,-0.154617 0.126424,-0.245424 0.0191068,-0.044475 0.0369028,-0.0855288 0.0602202,-0.125709 0.0170313,-0.0293504 0.0363566,-0.0970088 0.0530254,-0.132909 0.0400558,-0.0862736 0.0601309,-0.187434 0.0983644,-0.273494 0.013918,-0.0313117 0.0315054,-0.105058 0.0438096,-0.142129 0.00321261,-0.00968747 0.0190572,-0.0698034 0.019514,-0.0734629 0.00500511,-0.0402345 0.015641,-0.0474145 0.0211724,-0.0772615 0.00949382,-0.0511832 0.0229202,-0.100698 0.0362225,-0.149721 0.0135704,-0.0500263 0.0176669,-0.109874 0.029271,-0.156678 0.0124035,-0.0500462 0.0206064,-0.102967 0.0309741,-0.15497 0.00680755,-0.0341073 0.0243552,-0.136121 0.0251298,-0.160824 0.00319275,-0.102213 0.025964,-0.233939 0.0376823,-0.334225 0.00664866,-0.0568289 -0.00216988,-0.121756 0.008034,-0.17793 0.00836172,-0.0460043 0.00874902,-0.130863 0.00874902,-0.182682l0.00130093 -0.443136 -0.00676286 -0.114775c-0.0763826,-0.00170313 -0.228964,-0.0249709 -0.306672,-0.0376923 -0.0959561,-0.0157105 -0.202647,-0.0286205 -0.29333,-0.0510442 -0.0363715,-0.00899729 -0.103677,-0.0213859 -0.142864,-0.0265847 -0.044758,-0.00594357 -0.0953206,-0.0262371 -0.13912,-0.0358154 -0.049788,-0.0108891 -0.0937317,-0.0175626 -0.134433,-0.0350259 -0.00452843,-0.0019365 -0.0593265,-0.0170809 -0.068006,-0.0194643 -0.0337696,-0.00928528 -0.0412326,-0.0137988 -0.0666107,-0.0208546 -0.095405,-0.0265549 -0.166167,-0.0581695 -0.256949,-0.0874504 -0.0285609,-0.0092108 -0.0909659,-0.039311 -0.116905,-0.0525735 -0.0342364,-0.017508 -0.0842627,-0.0305123 -0.123564,-0.0513769 -0.0614963,-0.0326425 -0.17067,-0.0902062 -0.230925,-0.113489 -0.0686564,-0.0265301 -0.154051,-0.085499 -0.224907,-0.119522 -0.0686763,0.0329751 -0.157393,0.100683 -0.223393,0.126508 -0.0352394,0.0137839 -0.0757123,0.0424293 -0.116175,0.0587604 -0.0414511,0.0167284 -0.0793519,0.038591 -0.120287,0.054659 -0.0449219,0.0176271 -0.0773806,0.0354032 -0.12335,0.0515954 -0.0407162,0.0143301 -0.090807,0.0408999 -0.12413,0.0508009 -0.0496042,0.0147373 -0.0824056,0.0283027 -0.132069,0.0428712 -0.0240772,0.00705582 -0.112426,0.033998 -0.131727,0.0431989 -0.0647189,0.03084 -0.201441,0.0507612 -0.275942,0.0739148 -0.0924804,0.0287347 -0.19373,0.0362126 -0.286612,0.0632442 -0.0453489,0.013203 -0.251606,0.0511683 -0.297164,0.0526728 -0.0955937,0.00315302 -0.219078,0.0381392 -0.317159,0.0381392z"></path>
   <path id="_132718968" class="fil3" d="M1.43748 3.94366c0,-0.0128008 0.0090668,-0.0218825 0.0218576,-0.0218825l0.349812 0c0.0168029,0 0.0218576,0.0160283 0.0218576,0.0328212 0,0.0115694 -0.00195636,0.00720975 -0.00546193,0.0218775 -0.0122546,0.00286006 -0.0125674,0.00547186 -0.0273295,0.00547186l-0.338878 0c-0.0127908,0 -0.0218576,-0.00907673 -0.0218576,-0.0218825l0 -0.0164056zm0.677741 -0.0765762l-0.032712 0.0112317 0.0290128 0.0755583c-0.0172696,0.00433975 -0.0111076,0.00619184 -0.0236303,0.00619184 -0.010189,0 -0.0300108,-0.0482388 -0.0327914,-0.0601656l-0.0163957 0 -0.0475635 0.0400508 -0.00162865 -0.034579 -0.737867 0c-0.0497383,0 -0.103846,-0.0566998 -0.103846,-0.109397l0 -0.459452c0,-0.0509002 0.0526381,-0.109392 0.0983842,-0.109392l0.776125 0c0.0467392,0 0.0983842,0.0643415 0.0983842,0.114864l0 0.43757 -0.00559599 0.0437451 0.0395195 0.0426626 -0.0393954 0.00111225zm-0.797983 0.475868l0.174901 0.180497c0.0354479,0.0237594 0.141384,0.125982 0.181773,0.162676 0.0588845,0.053507 0.131558,0.107476 0.195358,0.154563 0.125297,0.0924754 0.285341,0.198834 0.426323,0.273489 0.00714023,-0.0144195 0.00546193,0.00449864 0.00546193,-0.0164106l0 -2.35744 -1.13138 -0.00682741 -0.420871 0.00136052 -0.245826 -0.0106954c0.0254278,0.0530502 0.0372007,0.171336 0.0598776,0.235071 0.0270018,0.0758612 0.050781,0.153083 0.0774005,0.22885 0.0504831,0.143688 0.115103,0.299676 0.184097,0.428374 0.0358154,0.0668242 0.0720975,0.128668 0.106627,0.194127 0.0346386,0.0656524 0.0806677,0.125932 0.118534,0.187687 0.0292908,0.047772 0.092386,0.133102 0.129751,0.17645 0.0378263,0.0438841 0.108881,0.124745 0.137978,0.168232l0 -4.96539e-006z"></path>
   <path id="_132718896" class="fil3" d="M1.98404 3.71939l0.0740985 0.0576035 0.00241814 -0.440485c0,-0.0274983 -0.0271756,-0.0546938 -0.054659,-0.0546938l-0.732395 0c-0.0451453,0 -0.0710597,0.0255122 -0.0710597,0.0711044l0 0.432103c0,0.0369475 0.0321211,0.0656424 0.0710597,0.0656424l0.710537 0 0 -0.131275z"></path>
   <path id="_132718824" class="fil0" d="M1.98404 3.85066l-0.710537 0c-0.0389386,0 -0.0710597,-0.028695 -0.0710597,-0.0656424l0 -0.432103c0,-0.0455922 0.0259144,-0.0711044 0.0710597,-0.0711044l0.732395 0c0.0274834,0 0.054659,0.0271954 0.054659,0.0546938l-0.00241814 0.440485 -0.0740985 -0.0576035 0 0.131275zm0.054654 0.0492219c0.00640039,-0.00922073 0.000784531,-0.0109388 0.0163957,-0.0109388l0.0218676 0 -0.000109239 -0.0170809 0.0383626 -0.00479657 0.0393954 -0.00111225 -0.0395195 -0.0426626 0.00559599 -0.0437451 0 -0.43757c0,-0.0505228 -0.051645,-0.114864 -0.0983842,-0.114864l-0.776125 0c-0.0457461,0 -0.0983842,0.0584923 -0.0983842,0.109392l0 0.459452c0,0.0526977 0.0541078,0.109397 0.103846,0.109397l0.737867 0 0.00162865 0.034579 0.0475635 -0.0400508z"></path>
   <path id="_132718752" class="fil4 str1" d="M0.876942 1.7345l0.0946304 0 0.00279055 0.541759c0,0 0.153396,-0.00815813 0.34791,0.101959l0.00252738 -0.328391 0.00253235 0.328391c0.194514,-0.110117 0.347905,-0.101959 0.347905,-0.101959l0.00279551 -0.541759 0.0895707 0 0 0.653922 -0.890662 0 0 -0.653922zm0.447858 0.00890294c-0.00202091,-0.00199112 -0.00560096,-0.0050349 -0.0116538,-0.00890294l0.0233125 0c-0.00606274,0.00387797 -0.00964279,0.00691182 -0.0116587,0.00890294z"></path>
   <path id="_132718680" class="fil4 str1" d="M0.971121 1.64691l0.0032424 0.629363c0,0 0.153396,-0.00815813 0.34791,0.101959l0.00252738 -0.328391 -0.0023387 -0.303758c0,0 0.000590881,-0.000938459 0.0023387,-0.00266641 -0.0114552,-0.0112963 -0.0732097,-0.0564763 -0.35368,-0.0965073z"></path>
   <path id="_132718608" class="fil4 str1" d="M1.67848 1.64691l-0.00324736 0.629363c0,0 -0.153391,-0.00815813 -0.347905,0.101959l-0.00487105 -0.632149c0,0 0.0326276,-0.0530155 0.356023,-0.0991737z"></path>
   <path id="_132718536" class="fil3" d="M2.74377 1.03377l0.0728025 0.097128c-0.0443062,0.000372404 -0.0731253,-0.0260236 -0.127462,-0.0260236 -0.00749277,0 -0.0577524,0.0858814 -0.0765117,0.0984537 0,-0.0327616 0.0108941,-0.12048 -0.0115942,-0.130615 -0.0131384,-0.00591874 -0.0929471,-0.0266989 -0.108653,-0.0280048l-0.00520869 -0.0102039 0.0871922 -0.0335511 0.0326127 -0.00630604 0.000178754 -0.130441 0.0789447 0.0965867 0.0139726 0.00186699 0.11475 -0.0438494 -0.0710249 0.114959zm1.37428 1.68468l0 0.0132824 -1.46173 0.00310833 -0.344335 0 0 -1.083c0.089094,0 0.244208,-0.0403339 0.278747,-0.08751 0.0517642,-0.0138336 0.160253,-0.147477 0.174901,-0.202379 -0.0235558,0.01578 -0.053229,0.0620972 -0.0841435,0.0853501 -0.0397181,0.0298569 -0.0702801,0.0389187 -0.107153,0.0623305 -0.034286,0.00799428 -0.0841782,0.0273494 -0.125714,0.0273494l-0.0166738 0.00255718 -0.125431 -0.0189678c0.0211327,0 0.00546689,-0.0209291 0.00546689,-0.0382931l-0.0109338 -0.760285 0.131176 -0.0164056c0.0270862,-0.00264159 0.075747,0.0103131 0.103851,0.0109388 -0.0544753,-0.0473797 -0.309438,-0.0316941 -0.224093,-0.0601656l0 -0.229734c0,-0.0105564 0.00172299,-0.0097272 0.00546689,-0.0164056 0.0313664,0.00731402 0.0970585,0.0425683 0.126871,0.0535368 0.0442218,0.0162666 0.0838505,0.0330844 0.124423,0.0505129 0.081055,0.0348223 0.172443,0.0618539 0.251547,0.0983346 0.0775643,0.0357607 0.185452,0.0592867 0.258826,0.0965073 0.0647338,0.0328361 0.210974,0.0563274 0.260415,0.0894614l0.344886 0.0909361c0.0464065,0.00204574 0.230925,0.0467243 0.292337,0.0589988 0.0849479,0.0169916 0.215553,0.0342314 0.302869,0.0415057 0,0.111677 0.00368432,0.363327 -0.0120858,0.463757 -0.0207255,0.131906 -0.00638053,0.305322 -0.0273345,0.443042 -0.0100251,0.065846 -0.00566054,0.149746 -0.0163957,0.21879 -0.00821772,0.0528417 -0.0258548,0.15561 -0.0263166,0.208864 -0.000481643,0.0558408 -0.0240722,0.145029 -0.0326077,0.202563 -0.00794959,0.0535964 -0.0399366,0.145377 -0.0437649,0.191401l-0.00307358 1.98616e-005z"></path>
   <rect id="_132718464" class="fil1" x="2.19554" y="0.532677" width="0.116493" height="0.423612"></rect>
   <path id="_132718392" class="fil1" d="M2.30651 1.52057c0.0211327,0 0.00546689,-0.0209291 0.00546689,-0.0382931l0 -0.760285 -0.0109338 0c-0.137268,0.0320069 -0.295148,0.200895 -0.295148,0.366471l0 0.0546938c0,0.177016 0.154389,0.343322 0.300615,0.377414z"></path>
   <rect id="_132718320" class="fil3" x="2.31155" y="1.40712" width="0.382131" height="0.343386"></rect>
   <path id="_132718248" class="fil0" d="M2.76564 1.36195c-0.0235558,0.01578 -0.053229,0.0620972 -0.0841435,0.0853501 -0.0397181,0.0298569 -0.0702801,0.0389187 -0.107153,0.0623305 -0.034286,0.00799428 -0.0841782,0.0273494 -0.125714,0.0273494l-0.0166738 0.00255718 -0.125431 -0.0189678c-0.146226,-0.0340924 -0.300615,-0.200398 -0.300615,-0.377414l0 -0.0546938c0,-0.165576 0.15788,-0.334464 0.295148,-0.366471l0.131176 -0.0164056c0.0270862,-0.00264159 0.075747,0.0103131 0.103851,0.0109388 -0.0461285,-0.0401203 -0.165104,-0.0492269 -0.256884,-0.0492269 -0.11266,0 -0.244148,0.0768642 -0.301995,0.135361 -0.0533879,0.0540036 -0.146196,0.191376 -0.146196,0.291275l0 0.120331c0,0.103186 0.0957327,0.255598 0.154443,0.3049 0.0392713,0.0329652 0.0891486,0.0698382 0.139969,0.08966 0.0258349,0.0100797 0.0543511,0.0201495 0.0859062,0.0288936 0.191202,0.052936 0.498173,-0.0653942 0.554311,-0.275768z"></path>
   <path id="_132718176" class="fil0" d="M2.57434 1.00096l-0.0871922 0.0335511 0.00520869 0.0102039c0.0157055,0.0013059 0.0955142,0.0220861 0.108653,0.0280048 0.0224882,0.0101344 0.0115942,0.0978529 0.0115942,0.130615 0.0187592,-0.0125724 0.0690189,-0.0984537 0.0765117,-0.0984537 0.0543363,0 0.0831554,0.026396 0.127462,0.0260236l-0.0728025 -0.097128 0.0710249 -0.114959 -0.11475 0.0438494 -0.0139726 -0.00186699 -0.0789447 -0.0965867 -0.000178754 0.130441 -0.0326127 0.00630604z"></path>
   <path id="_132718104" class="fil0" d="M2.0387 3.89989l0.0163957 0c0.00278062,0.0119269 0.0226025,0.0601656 0.0327914,0.0601656 0.0125227,0 0.00636066,-0.00185209 0.0236303,-0.00619184l-0.0290128 -0.0755583 0.032712 -0.0112317 -0.0383626 0.00479657 0.000109239 0.0170809 -0.0218676 0c-0.0156112,0 -0.00999533,0.00171802 -0.0163957,0.0109388z"></path>
   <path id="_132718032" class="fil4 str1" d="M2.93095 2.01222l-0.216834 -0.0985729 0.588711 -0.270807 0.582822 0.270807 -0.216819 0.100043c0,0 -0.206242,-0.144503 -0.371883,-0.129353 -0.165635,0.0151544 -0.214604,0.0367488 -0.365999,0.127884z"></path>
   <path id="_132717960" class="fil4 str1" d="M2.93095 2.01222l0.00293951 0.273399c0,0 0.233711,-0.011763 0.36012,0.0925995 0,0 0.181957,-0.125356 0.380706,-0.08966l-0.00588399 -0.274869"></path>
   <line id="_132717888" class="fil4 str1" x1="3.56221" y1="2.06211" x2="3.56126" y2="1.77057"></line>
   <circle id="_132717816" class="fil4 str1" cx="3.56174" cy="2.09013" r="0.0269919"></circle>
   <polygon id="_132717744" class="fil4 str1" points="3.56174,2.11997 3.5752,2.16655 3.58868,2.21314 3.56174,2.21314 3.5348,2.21314 3.54827,2.16655 "></polygon>
   <path id="_132717672" class="fil0" d="M3.41436 3.12656c-0.0560642,0 -0.101656,0.0455922 -0.101656,0.101661 0,0.0175328 0.00445395,0.0340377 0.0122993,0.0484572l-0.166534 0.166534c-0.02296,-0.0178754 -0.0516947,-0.0286155 -0.0829717,-0.0286155 -0.031282,0 -0.0600167,0.0107401 -0.0829915,0.0286006l-0.129939 -0.129939c0.00596343,-0.0100797 0.00960803,-0.021669 0.00960803,-0.0342066 0,-0.0373794 -0.0303981,-0.0677776 -0.0677726,-0.0677776 -0.0373794,0 -0.0677726,0.0303981 -0.0677726,0.0677776 0,0.0373745 0.0303931,0.0677726 0.0677726,0.0677726 0.0125376,0 0.0241268,-0.0036446 0.0342066,-0.00960803l0.129939 0.129939c-0.0178555,0.0229749 -0.0286006,0.0517096 -0.0286006,0.0829865 0,0.031277 0.0107401,0.0600167 0.0286006,0.0829717l-0.214569 0.214589c-0.0180641,-0.0163858 -0.0419377,-0.0264655 -0.0681798,-0.0264655 -0.0560692,0 -0.101661,0.0455972 -0.101661,0.101661 0,0.0560642 0.0455922,0.101656 0.101661,0.101656 0.0560642,0 0.101656,-0.0455922 0.101656,-0.101656 0,-0.0175378 -0.00445395,-0.0340427 -0.0122993,-0.0484572l0.217365 -0.21737c0.0187443,0.0145734 0.0413418,0.0243304 0.0660496,0.0274338l0 0.172145c-0.0480004,0.00809855 -0.0847195,0.0498475 -0.0847195,0.100132 0,0.0560692 0.0455972,0.101661 0.101661,0.101661 0.0560642,0 0.101661,-0.0455922 0.101661,-0.101661 0,-0.0502696 -0.0367191,-0.0920186 -0.0847195,-0.100132l0 -0.172145c0.0247028,-0.00310337 0.0473053,-0.0128604 0.0660446,-0.0274338l0.129939 0.129939c-0.00597833,0.0100996 -0.00962292,0.0216888 -0.00962292,0.0342264 0,0.0373794 0.0303981,0.0677726 0.0677726,0.0677726 0.0373794,0 0.0677726,-0.0303981 0.0677726,-0.0677726 0,-0.0373745 -0.0303931,-0.0677726 -0.0677726,-0.0677726 -0.0125376,0 -0.0241268,0.0036446 -0.0342066,0.00960803l-0.129939 -0.129939c0.0178605,-0.0229749 0.0286006,-0.0517145 0.0286006,-0.0829915 0,-0.031277 -0.0107401,-0.0600117 -0.0286006,-0.0829717l0.163759 -0.163754c0.0180442,0.0163808 0.0419178,0.0264655 0.0681599,0.0264655 0.0560692,0 0.101661,-0.0455972 0.101661,-0.101661 0,-0.0560642 -0.0455922,-0.101661 -0.101661,-0.101661zm-0.643847 0.152492c0,-0.0186897 0.0151991,-0.0338888 0.0338888,-0.0338888 0.0186897,0 0.0338838,0.0151991 0.0338838,0.0338888 0,0.0186848 -0.0151941,0.0338838 -0.0338838,0.0338838 -0.0186897,0 -0.0338888,-0.0151991 -0.0338888,-0.0338838zm-0.0847145 0.71162c-0.0373794,0 -0.0677726,-0.0303981 -0.0677726,-0.0677726 0,-0.0373794 0.0303931,-0.0677726 0.0677726,-0.0677726 0.0373745,0 0.0677726,0.0303931 0.0677726,0.0677726 0,0.0373745 -0.0303981,0.0677726 -0.0677726,0.0677726zm0.457471 -0.0338888c0,0.0373794 -0.0303981,0.0677776 -0.0677726,0.0677776 -0.0373794,0 -0.0677776,-0.0303981 -0.0677776,-0.0677776 0,-0.0373745 0.0303981,-0.0677726 0.0677776,-0.0677726 0.0373745,0 0.0677726,0.0303981 0.0677726,0.0677726zm-0.0677726 -0.304979c-0.0560692,0 -0.101661,-0.0455922 -0.101661,-0.101661 0,-0.0560642 0.0455922,-0.101656 0.101661,-0.101656 0.0560642,0 0.101656,0.0455922 0.101656,0.101656 0,0.0560692 -0.0455922,0.101661 -0.101656,0.101661zm0.304979 0.169434c0,0.0186897 -0.0151991,0.0338888 -0.0338888,0.0338888 -0.0186897,0 -0.0338838,-0.0151991 -0.0338838,-0.0338888 0,-0.0186897 0.0151941,-0.0338888 0.0338838,-0.0338888 0.0186897,0 0.0338888,0.0151991 0.0338888,0.0338888zm0.0338838 -0.525244c-0.0373745,0 -0.0677726,-0.0303981 -0.0677726,-0.0677726 0,-0.0373794 0.0303981,-0.0677726 0.0677726,-0.0677726 0.0373794,0 0.0677776,0.0303931 0.0677776,0.0677726 0,0.0373745 -0.0303981,0.0677726 -0.0677776,0.0677726z"></path>
  </g>
 </g>
</svg>